<?xml version="1.0" encoding="iso-8859-1"?>
<!-- Generator: Adobe Illustrator 19.0.0, SVG Export Plug-In . SVG Version: 6.00 Build 0)  -->
<svg version="1.1" id="Layer_1" xmlns="http://www.w3.org/2000/svg" xmlns:xlink="http://www.w3.org/1999/xlink" x="0px" y="0px"
	 viewBox="0 0 512 512" style="enable-background:new 0 0 512 512;" xml:space="preserve">
<path style="fill:#E5E5E5;" d="M510.013,68.019c-1.304-6.022-9.017-8.311-13.387-3.938l-48.885,48.887
	c-3.062,3.062-8.177,3.062-11.24,0l-37.464-37.464c-3.062-3.062-3.062-8.177,0-11.24l48.887-48.885
	c4.371-4.37,2.085-12.082-3.938-13.387c-28.879-6.255-58.567,2.459-79.417,23.31c-22.818,22.818-30.896,56.352-21.349,86.868
	L19.066,399.727c-11.573,10.093-18.51,24.684-19.034,40.03c-0.523,15.347,5.404,30.376,16.262,41.234l14.72,14.72
	c8.466,8.466,19.655,14.033,31.502,15.733c11.768,1.688,23.928-0.529,34.373-6.194c5.795-3.143,11.026-7.314,15.363-12.28
	l287.584-324.183c30.516,9.543,64.049,1.468,86.868-21.35C507.553,126.586,516.267,96.897,510.013,68.019z M79.351,457.88
	c-6.817,6.817-17.908,6.818-24.726,0c-6.817-6.818-6.817-17.909,0-24.727c3.409-3.409,7.886-5.113,12.363-5.113
	c4.478,0,8.955,1.704,12.363,5.113C86.169,439.97,86.169,451.062,79.351,457.88z"/>
<path style="fill:#B2B2B2;" d="M70.372,496.11c-10.474,0-20.723-4.242-28.119-11.638l-14.72-14.72
	c-7.756-7.756-11.989-18.491-11.615-29.452c0.374-10.962,5.329-21.384,13.595-28.593l331.945-294.47l-3.07-9.812
	c-7.858-25.12-1.184-52.281,17.419-70.883c6.308-6.308,13.59-11.274,21.5-14.752c8.048-3.539,15.037,6.688,8.821,12.905
	l-18.331,18.331c-4.504,4.503-6.983,10.491-6.983,16.859c0,6.369,2.48,12.356,6.983,16.859l37.082,37.082
	c4.227,4.227,9.804,6.966,15.771,7.322c6.913,0.412,13.482-2.091,18.33-6.94l18.278-18.278c6.21-6.21,16.448,0.767,12.911,8.805
	c-3.466,7.876-8.406,15.164-14.704,21.462c-13.304,13.303-31.01,20.631-49.853,20.631h-0.004c-7.129,0-14.217-1.082-21.022-3.21
	l-9.817-3.07L100.28,482.512C92.812,491.064,81.728,496.11,70.372,496.11z M66.988,412.145c-8.921,0-17.303,3.469-23.602,9.768
	c-13.014,13.015-13.014,34.191,0,47.205c6.3,6.3,14.682,9.769,23.603,9.769s17.304-3.469,23.603-9.769
	c13.015-13.015,13.015-34.191,0-47.206C84.291,415.614,75.909,412.145,66.988,412.145z"/>
<path style="fill:#EB6836;" d="M281.167,249.331l-18.494-18.494c-2.954-2.954-7.693-3.118-10.844-0.37L69.707,389.305
	c-4.994,4.355-2.532,12.818,3.993,13.841c9.008,1.413,17.181,5.57,23.635,12.023c6.257,6.257,10.372,14.168,11.897,22.874
	c1.129,6.441,9.507,8.795,13.818,3.853l158.488-181.722C284.284,257.025,284.122,252.286,281.167,249.331z"/>
<path style="fill:#CCCCCC;" d="M320.058,287.701L94.653,62.296c-1.49-1.491-3.512-2.328-5.619-2.328
	c-2.108,0-4.13,0.837-5.619,2.328L62.432,83.277c-1.491,1.49-2.328,3.512-2.328,5.619c0,2.108,0.837,4.13,2.328,5.619
	L287.838,319.92c3.061,3.061,8.177,3.061,11.239,0l20.98-20.98C323.162,295.837,323.162,290.805,320.058,287.701z"/>
<path style="fill:#B2B2B2;" d="M94.653,62.296c-1.49-1.491-3.512-2.328-5.619-2.328c-2.108,0-4.13,0.837-5.619,2.328L62.432,83.277
	c-1.491,1.49-2.328,3.512-2.328,5.619c0,2.108,0.837,4.13,2.328,5.619l36.857,36.857l32.22-32.22L94.653,62.296z"/>
<path style="fill:#CCCCCC;" d="M36.506,94.727l46.457,19.482l31.383-31.383L94.863,36.369c-0.725-1.728-2.038-3.145-3.707-4
	L29.715,0.899c-3.071-1.574-6.804-0.985-9.242,1.454L2.489,20.337c-2.439,2.439-3.026,6.173-1.454,9.242l31.47,61.441
	C33.361,92.689,34.777,94.002,36.506,94.727z"/>
<path style="fill:#62C9CC;" d="M499.81,404.513L370.635,275.337c-1.342-1.342-3.119-2.16-5.01-2.305l-38.964-2.998
	c-2.311-0.176-4.589,0.664-6.229,2.305l-47.955,47.955c-1.64,1.64-2.483,3.915-2.305,6.229l2.998,38.964
	c0.145,1.892,0.963,3.669,2.305,5.01L404.65,499.673c7.506,7.506,17.484,11.638,28.098,11.638s20.594-4.133,28.099-11.638
	l38.964-38.964c7.506-7.506,11.638-17.484,11.638-28.099S507.315,412.018,499.81,404.513z"/>
<path style="fill:#50A9A9;" d="M273.169,365.488c0.145,1.892,0.963,3.669,2.305,5.01L404.65,499.673
	c7.506,7.506,17.484,11.638,28.098,11.638c6.151,0,12.087-1.397,17.454-4.026L270.234,327.319L273.169,365.488z"/>
<path style="fill:#F7D04A;" d="M370.635,275.337c-1.342-1.342-3.119-2.16-5.01-2.305l-38.964-2.998
	c-2.311-0.176-4.589,0.664-6.229,2.305l-47.955,47.955c-1.64,1.64-2.483,3.915-2.305,6.229l2.998,38.964
	c0.145,1.892,0.963,3.669,2.305,5.01l5.243,5.243l95.16-95.16L370.635,275.337z"/>
<path style="fill:#F3B41B;" d="M270.234,327.319l2.936,38.169c0.145,1.892,0.963,3.669,2.305,5.01l5.243,5.243l18.969-18.969
	L270.234,327.319z"/>
<path style="fill:#F7D04A;" d="M467.293,425.946l-97.409-97.409c-4.504-4.504-10.491-6.983-16.859-6.983s-12.357,2.48-16.859,6.983
	l-7.493,7.493c-4.504,4.504-6.983,10.491-6.983,16.859s2.48,12.356,6.983,16.859l97.409,97.409
	c4.504,4.504,10.491,6.983,16.859,6.983s12.357-2.48,16.859-6.983l7.493-7.493c4.504-4.504,6.983-10.491,6.983-16.859
	C474.277,436.437,471.796,430.449,467.293,425.946z"/>
<g>
	<path style="fill:#EB6836;" d="M363.516,371.327c-2.034,0-4.068-0.776-5.619-2.328l-2.998-2.998c-3.104-3.104-3.104-8.136,0-11.239
		c3.104-3.104,8.136-3.104,11.239,0l2.998,2.998c3.104,3.104,3.104,8.136,0,11.239C367.584,370.551,365.55,371.327,363.516,371.327z
		"/>
	<path style="fill:#EB6836;" d="M387.494,395.305c-2.034,0-4.068-0.776-5.619-2.328l-2.998-2.998c-3.104-3.104-3.104-8.136,0-11.239
		c3.104-3.104,8.136-3.104,11.239,0l2.998,2.998c3.104,3.104,3.104,8.136,0,11.239C391.562,394.528,389.527,395.305,387.494,395.305
		z"/>
	<path style="fill:#EB6836;" d="M411.471,419.282c-2.034,0-4.068-0.776-5.619-2.328l-2.998-2.998c-3.104-3.104-3.104-8.136,0-11.239
		c3.104-3.104,8.136-3.104,11.239,0l2.998,2.998c3.104,3.104,3.104,8.136,0,11.239C415.539,418.506,413.505,419.282,411.471,419.282
		z"/>
	<path style="fill:#EB6836;" d="M435.449,443.26c-2.034,0-4.068-0.776-5.619-2.328l-2.998-2.998c-3.104-3.104-3.104-8.136,0-11.239
		c3.104-3.104,8.136-3.104,11.239,0l2.998,2.998c3.104,3.104,3.104,8.136,0,11.239C439.516,442.483,437.482,443.26,435.449,443.26z"
		/>
</g>
<g>
</g>
<g>
</g>
<g>
</g>
<g>
</g>
<g>
</g>
<g>
</g>
<g>
</g>
<g>
</g>
<g>
</g>
<g>
</g>
<g>
</g>
<g>
</g>
<g>
</g>
<g>
</g>
<g>
</g>
</svg>
