<svg xmlns="http://www.w3.org/2000/svg" viewBox="0 0 512 512"><path d="M510.013 68.019c-1.304-6.022-9.017-8.311-13.387-3.938l-48.885 48.887c-3.062 3.062-8.177 3.062-11.24 0l-37.464-37.464c-3.062-3.062-3.062-8.177 0-11.24l48.887-48.885c4.371-4.37 2.085-12.082-3.938-13.387-28.879-6.255-58.567 2.459-79.417 23.31-22.818 22.818-30.896 56.352-21.349 86.868L19.066 399.727C7.493 409.82.556 424.411.032 439.757c-.523 15.347 5.404 30.376 16.262 41.234l14.72 14.72c8.466 8.466 19.655 14.033 31.502 15.733 11.768 1.688 23.928-.529 34.373-6.194a55.674 55.674 0 0 0 15.363-12.28l287.584-324.183c30.516 9.543 64.049 1.468 86.868-21.35 20.849-20.851 29.563-50.54 23.309-79.418zM79.351 457.88c-6.817 6.817-17.908 6.818-24.726 0-6.817-6.818-6.817-17.909 0-24.727a17.429 17.429 0 0 1 12.363-5.113c4.478 0 8.955 1.704 12.363 5.113 6.818 6.817 6.818 17.909 0 24.727z" fill="#e5e5e5"/><path d="M70.372 496.11c-10.474 0-20.723-4.242-28.119-11.638l-14.72-14.72c-7.756-7.756-11.989-18.491-11.615-29.452.374-10.962 5.329-21.384 13.595-28.593l331.945-294.47-3.07-9.812c-7.858-25.12-1.184-52.281 17.419-70.883 6.308-6.308 13.59-11.274 21.5-14.752 8.048-3.539 15.037 6.688 8.821 12.905l-18.331 18.331c-4.504 4.503-6.983 10.491-6.983 16.859 0 6.369 2.48 12.356 6.983 16.859l37.082 37.082c4.227 4.227 9.804 6.966 15.771 7.322 6.913.412 13.482-2.091 18.33-6.94l18.278-18.278c6.21-6.21 16.448.767 12.911 8.805a70.488 70.488 0 0 1-14.704 21.462c-13.304 13.303-31.01 20.631-49.853 20.631h-.004a70.434 70.434 0 0 1-21.022-3.21l-9.817-3.07L100.28 482.512c-7.468 8.552-18.552 13.598-29.908 13.598zm-3.384-83.965c-8.921 0-17.303 3.469-23.602 9.768-13.014 13.015-13.014 34.191 0 47.205 6.3 6.3 14.682 9.769 23.603 9.769s17.304-3.469 23.603-9.769c13.015-13.015 13.015-34.191 0-47.206-6.301-6.298-14.683-9.767-23.604-9.767z" fill="#b2b2b2"/><path d="M281.167 249.331l-18.494-18.494a7.948 7.948 0 0 0-10.844-.37L69.707 389.305c-4.994 4.355-2.532 12.818 3.993 13.841 9.008 1.413 17.181 5.57 23.635 12.023a42.587 42.587 0 0 1 11.897 22.874c1.129 6.441 9.507 8.795 13.818 3.853l158.488-181.722a7.948 7.948 0 0 0-.371-10.843z" fill="#eb6836"/><path d="M320.058 287.701L94.653 62.296a7.944 7.944 0 0 0-11.238 0L62.432 83.277a7.944 7.944 0 0 0 0 11.238L287.838 319.92c3.061 3.061 8.177 3.061 11.239 0l20.98-20.98a7.945 7.945 0 0 0 .001-11.239z" fill="#ccc"/><path d="M94.653 62.296a7.944 7.944 0 0 0-11.238 0L62.432 83.277a7.944 7.944 0 0 0 0 11.238l36.857 36.857 32.22-32.22-36.856-36.856z" fill="#b2b2b2"/><path d="M36.506 94.727l46.457 19.482 31.383-31.383-19.483-46.457a7.951 7.951 0 0 0-3.707-4L29.715.899a7.943 7.943 0 0 0-9.242 1.454L2.489 20.337a7.947 7.947 0 0 0-1.454 9.242l31.47 61.441a7.954 7.954 0 0 0 4.001 3.707z" fill="#ccc"/><path d="M499.81 404.513L370.635 275.337a7.945 7.945 0 0 0-5.01-2.305l-38.964-2.998a7.955 7.955 0 0 0-6.229 2.305l-47.955 47.955a7.947 7.947 0 0 0-2.305 6.229l2.998 38.964a7.94 7.94 0 0 0 2.305 5.01L404.65 499.673c7.506 7.506 17.484 11.638 28.098 11.638s20.594-4.133 28.099-11.638l38.964-38.964c7.506-7.506 11.638-17.484 11.638-28.099s-4.134-20.592-11.639-28.097z" fill="#62c9cc"/><path d="M273.169 365.488a7.94 7.94 0 0 0 2.305 5.01L404.65 499.673c7.506 7.506 17.484 11.638 28.098 11.638a39.574 39.574 0 0 0 17.454-4.026L270.234 327.319l2.935 38.169z" fill="#50a9a9"/><path d="M370.635 275.337a7.945 7.945 0 0 0-5.01-2.305l-38.964-2.998a7.955 7.955 0 0 0-6.229 2.305l-47.955 47.955a7.947 7.947 0 0 0-2.305 6.229l2.998 38.964a7.94 7.94 0 0 0 2.305 5.01l5.243 5.243 95.16-95.16-5.243-5.243z" fill="#f7d04a"/><path d="M270.234 327.319l2.936 38.169a7.94 7.94 0 0 0 2.305 5.01l5.243 5.243 18.969-18.969-29.453-29.453z" fill="#f3b41b"/><path d="M467.293 425.946l-97.409-97.409c-4.504-4.504-10.491-6.983-16.859-6.983s-12.357 2.48-16.859 6.983l-7.493 7.493c-4.504 4.504-6.983 10.491-6.983 16.859s2.48 12.356 6.983 16.859l97.409 97.409c4.504 4.504 10.491 6.983 16.859 6.983s12.357-2.48 16.859-6.983l7.493-7.493a23.685 23.685 0 0 0 6.983-16.859 23.683 23.683 0 0 0-6.983-16.859z" fill="#f7d04a"/><g fill="#eb6836"><path d="M363.516 371.327a7.919 7.919 0 0 1-5.619-2.328l-2.998-2.998a7.946 7.946 0 0 1 0-11.239 7.946 7.946 0 0 1 11.239 0l2.998 2.998a7.946 7.946 0 0 1 0 11.239 7.923 7.923 0 0 1-5.62 2.328zM387.494 395.305a7.919 7.919 0 0 1-5.619-2.328l-2.998-2.998a7.946 7.946 0 0 1 0-11.239 7.946 7.946 0 0 1 11.239 0l2.998 2.998a7.946 7.946 0 0 1-5.62 13.567zM411.471 419.282a7.919 7.919 0 0 1-5.619-2.328l-2.998-2.998a7.946 7.946 0 0 1 0-11.239 7.946 7.946 0 0 1 11.239 0l2.998 2.998a7.946 7.946 0 0 1 0 11.239 7.923 7.923 0 0 1-5.62 2.328zM435.449 443.26a7.919 7.919 0 0 1-5.619-2.328l-2.998-2.998a7.946 7.946 0 0 1 0-11.239 7.946 7.946 0 0 1 11.239 0l2.998 2.998a7.946 7.946 0 0 1-5.62 13.567z"/></g></svg>