<svg xmlns="http://www.w3.org/2000/svg" viewBox="0 0 57.21 57.21"><path d="M29.046 53.605H40a1.274 1.274 0 0 0 1.092-1.932l-.01-.017c-.709-1.177-.847-2.657-.215-3.877a5.63 5.63 0 0 1 2.579-2.486c7.719-3.686 13.193-7.804 13.762-16.206a1.382 1.382 0 0 0-1.37-1.481H1.375c-.798 0-1.424.685-1.37 1.481.569 8.401 6.042 12.52 13.762 16.206a5.63 5.63 0 0 1 2.579 2.486c.632 1.22.494 2.7-.215 3.877l-.01.017c-.512.85.1 1.932 1.092 1.932h11.833z" fill="#e6e6e6"/><path d="M36 47.605h-8.707a1 1 0 1 1 0-2H36a1 1 0 1 1 0 2zM24.386 47.605H21a1 1 0 1 1 0-2h3.386a1 1 0 1 1 0 2zM36 50.605H21a1 1 0 1 1 0-2h15a1 1 0 1 1 0 2z" fill="#fff"/><path d="M41 3.605a9 9 0 0 0-9 9c0 .703.089 1.384.241 2.041.507.521 1.281.7 1.959.386l.392-.181a1.737 1.737 0 0 1 2.46 1.42l.039.43a1.737 1.737 0 0 0 1.575 1.574l.43.039a1.737 1.737 0 0 1 1.42 2.46l-.181.392c-.06.129-.079.265-.105.4.255.022.511.039.771.039a9 9 0 1 0-.001-18z" fill="#d13834"/><path d="M49.974 13.119c-.268 4.73-4.177 8.486-8.974 8.486-.26 0-.518-.012-.773-.034-.127.658.114 1.345.682 1.745l.354.25a1.737 1.737 0 0 1-.001 2.84l-.353.249a1.718 1.718 0 0 0-.645.901l.04.049h13.389a8.955 8.955 0 0 0 2.305-6c.002-3.927-2.517-7.257-6.024-8.486z" fill="#436b1c"/><path d="M39.586 12.191a.997.997 0 0 1-.707-.293L36.05 9.07a.999.999 0 1 1 1.414-1.414l2.829 2.828a.999.999 0 0 1-.707 1.707zM45.243 17.847a.997.997 0 0 1-.707-.293l-2.829-2.828a.999.999 0 1 1 1.414-1.414l2.829 2.828a1 1 0 0 1-.707 1.707zM42.414 12.191a.999.999 0 0 1-.707-1.707l2.829-2.828A.999.999 0 1 1 45.95 9.07l-2.829 2.828a.997.997 0 0 1-.707.293zM37.257 17.347a.999.999 0 0 1-.707-1.707l2.329-2.328a.999.999 0 1 1 1.414 1.414l-2.329 2.328a.993.993 0 0 1-.707.293z" fill="#ed3f32"/><path d="M53 21.605h-4a1 1 0 1 1 0-2h4a1 1 0 1 1 0 2zM47 27.605a1 1 0 0 1-1-1v-4a1 1 0 1 1 2 0v4a1 1 0 0 1-1 1z" fill="#659c35"/><path d="M23.461 18.387a1.739 1.739 0 0 1 1.054 2.388l-.181.392a1.737 1.737 0 0 0 .576 2.15l.354.25a1.737 1.737 0 0 1-.001 2.84l-.353.249a1.733 1.733 0 0 0-.669.951h16c.105-.374.332-.713.669-.951l.353-.249a1.737 1.737 0 0 0 .001-2.84l-.354-.25a1.738 1.738 0 0 1-.576-2.15l.181-.392a1.737 1.737 0 0 0-1.42-2.46l-.43-.039a1.74 1.74 0 0 1-1.575-1.574l-.039-.43a1.737 1.737 0 0 0-2.46-1.42l-.391.18a1.737 1.737 0 0 1-2.15-.576l-.249-.353a1.737 1.737 0 0 0-2.841 0l-.249.353a1.737 1.737 0 0 1-2.15.576l-.392-.182a1.737 1.737 0 0 0-2.46 1.42l-.039.43c-.04.442-.24.937-.393 1.26a.307.307 0 0 0 .184.427z" fill="#88c057"/><path d="M12.545 13.88l5.76-8.175a3.008 3.008 0 0 1 4.18-.724 3.008 3.008 0 0 1 .724 4.18l-5.76 8.175a3.008 3.008 0 0 1-4.18.724 3.008 3.008 0 0 1-.724-4.18z" fill="#a46f3e"/><path d="M25.263 23.565l-.353-.249a1.737 1.737 0 0 1-.576-2.15l.181-.392a1.737 1.737 0 0 0-1.42-2.46l-.43-.039a1.737 1.737 0 0 1-1.574-1.574l-.039-.43a1.733 1.733 0 0 0-1.744-1.573l-1.858 2.637a3.008 3.008 0 0 1-4.18.724 3.01 3.01 0 0 1-1.204-3.077c-.461.233-1.008.278-1.504.049l-.392-.182a1.737 1.737 0 0 0-2.46 1.42l-.039.43a1.737 1.737 0 0 1-1.574 1.574l-.43.039a1.737 1.737 0 0 0-1.42 2.46l.181.392c.353.762.11 1.667-.576 2.15l-.353.249a1.738 1.738 0 0 0 0 2.841l.353.249c.337.237.563.577.668.95h19.722c.105-.374.332-.713.668-.95l.353-.249a1.735 1.735 0 0 0 0-2.839z" fill="#fbd490"/><path d="M29.5 21.105a.999.999 0 0 1-.707-1.707l1.5-1.5a.999.999 0 1 1 1.414 1.414l-1.5 1.5a.997.997 0 0 1-.707.293zM35 23.605a.997.997 0 0 1-.707-.293l-1-1a.999.999 0 1 1 1.414-1.414l1 1A.999.999 0 0 1 35 23.605zM30 25.605a.999.999 0 0 1-.707-1.707l1-1a.999.999 0 1 1 1.414 1.414l-1 1a.997.997 0 0 1-.707.293z" fill="#436b1c"/></svg>