<svg xmlns="http://www.w3.org/2000/svg" viewBox="0 0 512.001 512.001"><path d="M388.414 57.379c53.629 0 97.104 43.475 97.104 97.103 0 61.793 8.828 123.586 8.828 123.586s-44.138 26.483-105.931 35.31c-61.793-8.828-105.931-35.31-105.931-35.31s8.828-61.793 8.828-123.586c-.002-53.628 43.473-97.103 97.102-97.103z" fill="#d59f63"/><path d="M353.103 145.655v-26.483c0-30.008 21.396-55 49.76-60.602-4.726-.707-9.525-1.191-14.449-1.191h-.001c-53.629 0-97.103 43.475-97.103 97.103 0 61.793-8.828 123.586-8.828 123.586s44.138 26.483 105.931 35.31V180.966l-35.31-35.311z" fill="#cd915a"/><path d="M495.353 342.031l-60.531-24.212a17.654 17.654 0 0 1-11.098-16.392v-32.185h-70.621v32.185a17.654 17.654 0 0 1-11.098 16.392l-60.531 24.212a26.483 26.483 0 0 0-16.647 24.588v35.036a8.828 8.828 0 0 0 8.828 8.828v79.448h220.69a8.828 8.828 0 0 0 8.828-8.828v-70.621a8.828 8.828 0 0 0 8.828-8.828v-35.036a26.483 26.483 0 0 0-16.648-24.587z" fill="#fad7a5"/><g fill="#f0c891"><path d="M503.172 401.655v26.483h-8.828a8.828 8.828 0 0 0-8.828 8.828v52.966h-26.483v-88.276h44.139v-.001zM353.103 297.809c10.96 4.299 22.844 6.744 35.31 6.744s24.35-2.445 35.31-6.744v-28.566h-70.621v28.566h.001z"/></g><path d="M388.414 286.897c-43.878 0-79.448-35.57-79.448-79.448v-27.215c0-4.338 3.198-7.992 7.484-8.658 20.268-3.149 30.084-18.77 34.175-27.96a5.207 5.207 0 0 1 7.925-2.059c37.4 28.216 109.313 7.103 109.313 65.893-.001 43.876-35.571 79.447-79.449 79.447z" fill="#ffe1b4"/><path d="M353.103 207.448v-66.282c-1.032.521-1.957 1.277-2.479 2.449-4.091 9.19-13.907 24.811-34.175 27.96-4.287.666-7.484 4.321-7.484 8.658v27.215c0 43.878 35.57 79.448 79.448 79.448 7.667 0 15.055-1.145 22.069-3.171-33.128-9.571-57.379-40.065-57.379-76.277z" fill="#fad098"/><path d="M388.414 251.586c-9.345 0-18.276-4.409-24.509-12.095-3.078-3.789-2.491-9.345 1.293-12.418 3.802-3.069 9.353-2.483 12.414 1.297 5.828 7.172 15.776 7.172 21.603 0 3.06-3.78 8.621-4.366 12.414-1.297 3.784 3.073 4.371 8.629 1.293 12.418-6.232 7.686-15.163 12.095-24.508 12.095z" fill="#d7af7d"/><g fill="#64463c"><path d="M423.724 207.448a8.826 8.826 0 0 1-8.828-8.828v-8.828a8.826 8.826 0 0 1 8.828-8.828 8.826 8.826 0 0 1 8.828 8.828v8.828a8.826 8.826 0 0 1-8.828 8.828zM353.103 207.448a8.826 8.826 0 0 1-8.828-8.828v-8.828c0-4.875 3.948-8.828 8.828-8.828s8.828 3.953 8.828 8.828v8.828a8.825 8.825 0 0 1-8.828 8.828z"/></g><path d="M495.353 342.031l-37.655-15.062C451.359 359.464 422.765 384 388.414 384s-62.945-24.536-69.284-57.031l-37.655 15.062a26.483 26.483 0 0 0-16.647 24.588v123.312h203.035v-79.448h35.31a8.828 8.828 0 0 0 8.828-8.828V366.62a26.484 26.484 0 0 0-16.648-24.589z" fill="#ff507d"/><g fill="#d23c69"><path d="M457.698 326.969C451.359 359.464 422.765 384 388.414 384s-62.945-24.536-69.284-57.031l-16.574 6.629c9.153 38.992 44.073 68.057 85.858 68.057s76.705-29.065 85.858-68.057l-16.574-6.629zM467.862 400.141c0-4.682 1.86-9.173 5.171-12.484l34.951-34.951c2.539 4.101 4.016 8.874 4.016 13.913v35.036a8.828 8.828 0 0 1-8.828 8.828h-35.31v-10.342z"/></g><path d="M61.793 489.931H17.655a8.828 8.828 0 0 1-8.828-8.828V375.172h52.966v114.759z" fill="#b48764"/><g fill="#966d50"><path d="M8.828 392.828v17.655h17.655a8.828 8.828 0 0 1 8.828 8.828v70.621h26.483v-97.103H8.828v-.001zM203.03 375.171h52.966v114.76H203.03z"/></g><path d="M245.313 281.574l-77.589-21.161H97.103l-77.589 21.161A26.483 26.483 0 0 0 0 307.124V384a8.828 8.828 0 0 0 8.828 8.828h44.138v97.103h158.897V372.966h52.965v-65.842a26.483 26.483 0 0 0-19.515-25.55z" fill="#00aaf0"/><path d="M167.724 260.414H97.103l-34.607 9.438c4.624 34.529 34.123 61.183 69.918 61.183s65.294-26.654 69.918-61.183l-34.608-9.438z" fill="#0096dc"/><path d="M88.276 229.517v30.897c0 24.377 19.761 44.138 44.138 44.138s44.138-19.761 44.138-44.138v-30.897H88.276z" fill="#b48764"/><path d="M88.276 249.723c13.258 6.801 28.242 10.691 44.138 10.691s30.88-3.89 44.138-10.691v-20.206H88.276v20.206z" fill="#966d50"/><path d="M211.862 128V75.034H52.966V128c-9.751 0-17.655 7.904-17.655 17.655 0 9.751 7.905 17.655 17.655 17.655 0 43.878 35.57 79.448 79.448 79.448s79.448-35.57 79.448-79.448c9.751 0 17.655-7.905 17.655-17.655 0-9.751-7.904-17.655-17.655-17.655z" fill="#c39772"/><path d="M97.103 163.31V75.034H52.966V128c-9.751 0-17.655 7.904-17.655 17.655 0 9.751 7.905 17.655 17.655 17.655 0 43.878 35.57 79.448 79.448 79.448 7.666 0 15.055-1.145 22.069-3.171-33.129-9.571-57.38-40.065-57.38-76.277z" fill="#b48764"/><path d="M132.414 207.448c-9.345 0-18.276-4.409-24.509-12.095-3.078-3.789-2.491-9.345 1.293-12.418 3.802-3.065 9.353-2.478 12.414 1.297 5.828 7.172 15.776 7.172 21.603 0a8.839 8.839 0 0 1 12.414-1.297c3.784 3.073 4.371 8.629 1.293 12.418-6.232 7.686-15.163 12.095-24.508 12.095z" fill="#966d50"/><g fill="#553732"><path d="M97.103 163.31a8.826 8.826 0 0 1-8.828-8.828v-8.828c0-4.875 3.948-8.828 8.828-8.828s8.828 3.953 8.828 8.828v8.828a8.825 8.825 0 0 1-8.828 8.828zM167.724 163.31a8.826 8.826 0 0 1-8.828-8.828v-8.828a8.826 8.826 0 0 1 8.828-8.828 8.826 8.826 0 0 1 8.828 8.828v8.828a8.826 8.826 0 0 1-8.828 8.828z"/></g><path d="M191.837 119.598c2.578 6.827 9.875 9.92 17.063 8.659.961-.169 1.95-.257 2.962-.257 3.232 0 6.222.932 8.828 2.449V75.034c0-13.207-7.336-24.585-18.074-30.641-2.006-12.637-12.862-22.325-26.064-22.325h-70.621c-34.127 0-61.793 27.666-61.793 61.793v46.587c2.606-1.517 5.595-2.449 8.828-2.449 1.135 0 2.242.11 3.312.321 8.597 1.693 17.206-3.059 19.359-11.553l2.171-8.683c.959-3.838 4.324-6.574 8.278-6.681 16.424-.443 59.779-2.621 89.34-13.321 5.234-1.894 10.874 1.293 11.789 6.783l3.305 19.832a25.85 25.85 0 0 0 1.317 4.901z" fill="#64463c"/><path d="M97.103 75.034c0-29.252 23.713-52.966 52.966-52.966h-44.138c-34.127 0-61.793 27.665-61.793 61.793v46.587c2.606-1.517 5.595-2.449 8.828-2.449 1.135 0 2.241.11 3.311.321 8.598 1.692 17.206-3.059 19.359-11.553l2.171-8.683c.959-3.838 4.323-6.574 8.278-6.681 2.898-.078 6.668-.215 11.019-.439l-.001-25.93z" fill="#553732"/><path d="M0 307.123V384a8.828 8.828 0 0 0 8.828 8.828h44.138v-28.994a44.14 44.14 0 0 0-9.298-27.098L6.883 289.441C2.604 294.186 0 300.392 0 307.123z" fill="#0096dc"/><path d="M326.168 439.757l-28.821-9.607a8.827 8.827 0 0 1-6.036-8.374v-20.12h-52.965v20.12c0 3.8-2.431 7.173-6.036 8.374l-28.821 9.607a26.483 26.483 0 0 0-18.108 25.124v16.223a8.828 8.828 0 0 0 8.828 8.828H335.45a8.828 8.828 0 0 0 8.828-8.828v-16.223a26.488 26.488 0 0 0-18.11-25.124z" fill="#e6af78"/><path d="M238.345 401.655v20.12c0 .504-.149.969-.231 1.454 7.647 2.869 15.79 4.617 24.283 4.872.81.024 1.626.036 2.431.036 9.393 0 18.372-1.719 26.743-4.726-.104-.542-.26-1.07-.26-1.636v-20.12h-52.966z" fill="#d29b6e"/><path d="M264.828 216.276c-43.878 0-79.448 35.57-79.448 79.448v26.483h158.897v-26.483c-.001-43.878-35.571-79.448-79.449-79.448z" fill="#64463c"/><path d="M291.31 220.893c-8.294-2.936-17.182-4.617-26.483-4.617-43.878 0-79.448 35.57-79.448 79.448v26.483h52.966v-26.483c0-34.577 22.129-63.913 52.965-74.831z" fill="#553732"/><path d="M326.621 304.552v-7.644c0-13.026-13.602-21.199-25.363-15.598-48.693 23.189-98.223 23.242-98.223 23.242-9.751 0-17.655 7.904-17.655 17.655s7.905 17.655 17.655 17.655v6.236c0 33.835 26.072 63.34 59.892 64.356 34.995 1.051 63.694-27.006 63.694-61.764v-8.828c9.751 0 17.655-7.905 17.655-17.655 0-9.751-7.905-17.655-17.655-17.655z" fill="#f0c087"/><path d="M311.641 201.257l-46.813 20.063-46.813-20.063c-2.913-1.248-6.152.888-6.152 4.057v39.578c0 3.169 3.24 5.305 6.152 4.057l46.813-20.063 46.813 20.063c2.913 1.248 6.152-.888 6.152-4.057v-39.578c0-3.168-3.24-5.305-6.152-4.057z" fill="#ffdc64"/><path d="M238.345 348.69v-47.827c-20.874 3.64-35.31 3.689-35.31 3.689-9.751 0-17.655 7.904-17.655 17.655s7.905 17.655 17.655 17.655v6.236c0 33.835 26.072 63.341 59.892 64.356a61.832 61.832 0 0 0 19.556-2.564c-25.519-7.601-44.138-31.213-44.138-59.2z" fill="#e6af78"/><path d="M264.828 384c-9.345 0-18.276-4.409-24.509-12.095-3.078-3.789-2.491-9.345 1.293-12.418 3.793-3.065 9.353-2.478 12.414 1.297 5.828 7.172 15.776 7.172 21.603 0 3.06-3.776 8.612-4.362 12.414-1.297 3.784 3.073 4.371 8.629 1.293 12.418-6.233 7.686-15.164 12.095-24.508 12.095z" fill="#d29b6e"/><g fill="#553732"><path d="M238.345 339.862c-2.293 0-4.595-.974-6.267-2.56-1.595-1.677-2.56-3.974-2.56-6.267 0-2.297.966-4.591 2.56-6.267 3.267-3.267 9.267-3.267 12.534 0 1.586 1.677 2.56 3.97 2.56 6.267 0 2.293-.974 4.591-2.56 6.267-1.681 1.586-3.974 2.56-6.267 2.56zM291.31 339.862c-2.293 0-4.595-.974-6.267-2.56-.793-.797-1.414-1.767-1.853-2.914-.44-1.06-.707-2.207-.707-3.353 0-1.151.267-2.297.707-3.358.44-1.147 1.06-2.116 1.853-2.909 3.267-3.267 9.181-3.267 12.534 0 .793.879 1.414 1.763 1.853 2.909.44 1.06.707 2.207.707 3.358 0 2.293-.974 4.591-2.56 6.267-1.68 1.586-3.974 2.56-6.267 2.56z"/></g><path d="M326.168 439.757l-14.395-4.798c-8.842 16.922-26.529 28.49-46.945 28.49s-38.103-11.567-46.944-28.49l-14.395 4.798a26.483 26.483 0 0 0-18.108 25.124v16.223a8.828 8.828 0 0 0 8.828 8.828H335.45a8.828 8.828 0 0 0 8.828-8.828v-16.223a26.488 26.488 0 0 0-18.11-25.124z" fill="#ffdc64"/><circle cx="264.83" cy="225.1" r="13.241" fill="#ffc850"/></svg>