<svg xmlns="http://www.w3.org/2000/svg" viewBox="0 0 506.4 506.4"><circle cx="253.2" cy="238.4" r="238.4" fill="#f15249"/><path d="M422 69.6c93.6 93.6 93.6 244.8 0 337.6-93.6 93.6-244.8 93.6-337.6 0" fill="#c93131"/><path fill="#fff" d="M189.2 116l-52-29.6-52 29.6v59.2l8 4.8-8 5.6v32l-48 29.6v81.6l48 30.4v32l52 29.6 52-29.6V332l-16-7.2V252l16-7.2v-59.2l-8-5.6 8-4.8z"/><g fill="#e5e5e5"><path d="M85.2 356.8v34.4l52 29.6 52-29.6V332l-16-7.2V252l16-7.2v-59.2l-8-5.6 8-4.8v-58.4M469.2 247.2l-48-29.6v-32l-8-5.6 8-4.8V116l-52-29.6-52 29.6v59.2l8.8 4.8-8.8 5.6v59.2l16 7.2v72.8l-16 7.2v59.2l52 29.6 52-29.6v-32l48-30.4z"/></g><path fill="#c1c1c1" d="M369.2 85.6l-52 30.4v59.2l8.8 4.8-8.8 5.6v59.2l16 7.2v72.8l-16 7.2v59.2l52 29.6 52-29.6v-34.4"/><path fill="#ffc114" d="M100.4 136l152.8-49.6L406 136l-41.6 200-111.2 87.2L142 336z"/><path fill="#eaac0f" d="M253.2 86.4L406 136l-41.6 200-111.2 87.2"/><path fill="#ffc114" d="M173.2 316.8l80-16 80 16-14.4 157.6-65.6 32-65.6-32z"/><path fill="#eaac0f" d="M253.2 300.8l80 16-14.4 157.6-65.6 32"/><path fill="#ffc114" d="M141.2 132l-136 7.2 66.4 66.4 68-35.2z"/><path fill="#eaac0f" d="M71.6 205.6l68-35.2 1.6-38.4"/><path fill="#ffc114" d="M365.2 132l136 7.2-66.4 66.4-68-35.2z"/><path fill="#eaac0f" d="M365.2 132l136 7.2-66.4 66.4"/><path d="M211.6 239.2c0 7.2-6.4 13.6-15.2 13.6-8 0-15.2-5.6-15.2-13.6 0-7.2 6.4-13.6 15.2-13.6 8.8.8 15.2 6.4 15.2 13.6z" fill="#5e6664"/><path d="M207.6 230.4c5.6 4.8 5.6 13.6 0 18.4s-15.2 4.8-20.8 0" fill="#2f423f"/><ellipse cx="309.2" cy="239.2" rx="15.2" ry="13.6" fill="#5e6664"/><path d="M319.6 230.4c5.6 4.8 5.6 13.6 0 18.4-5.6 4.8-15.2 4.8-20.8 0" fill="#2f423f"/><path fill="#9e7738" d="M272.4 484.8H234l-25.6-40h88.8z"/><path fill="#c1924d" d="M272.4 460.8H234l-25.6-16h88.8z"/><path fill="#eaac0f" d="M139.6 170.4l124.8 88.8 11.2-106.4-112-10.4-27.2 2.4-4.8 5.6-8.8 15.2z"/><path fill="#fff" d="M400.4 100.8l-32.8-56h-54.4l-15.2-32h-90.4l-15.2 32H138l-32.8 56 32.8 56h59.2l10.4 16H298l10.4-16h59.2z"/><path fill="#e5e5e5" d="M141.2 156.8h56l10.4 16H298l10.4-16h59.2l32.8-56-32.8-56h-54.4l-13.6-27.2"/></svg>