<?xml version="1.0" encoding="iso-8859-1"?>
<!-- Generator: Adobe Illustrator 19.0.0, SVG Export Plug-In . SVG Version: 6.00 Build 0)  -->
<svg version="1.1" id="Layer_1" xmlns="http://www.w3.org/2000/svg" xmlns:xlink="http://www.w3.org/1999/xlink" x="0px" y="0px"
	 viewBox="0 0 506.4 506.4" style="enable-background:new 0 0 506.4 506.4;" xml:space="preserve">
<circle style="fill:#F15249;" cx="253.2" cy="238.4" r="238.4"/>
<path style="fill:#C93131;" d="M422,69.6c93.6,93.6,93.6,244.8,0,337.6c-93.6,93.6-244.8,93.6-337.6,0"/>
<polygon style="fill:#FFFFFF;" points="189.2,116 137.2,86.4 85.2,116 85.2,175.2 93.2,180 85.2,185.6 85.2,217.6 37.2,247.2 
	37.2,328.8 85.2,359.2 85.2,391.2 137.2,420.8 189.2,391.2 189.2,332 173.2,324.8 173.2,252 189.2,244.8 189.2,185.6 181.2,180 
	189.2,175.2 "/>
<g>
	<polyline style="fill:#E5E5E5;" points="85.2,356.8 85.2,391.2 137.2,420.8 189.2,391.2 189.2,332 173.2,324.8 173.2,252 
		189.2,244.8 189.2,185.6 181.2,180 189.2,175.2 189.2,116.8 	"/>
	<polygon style="fill:#E5E5E5;" points="469.2,247.2 421.2,217.6 421.2,185.6 413.2,180 421.2,175.2 421.2,116 369.2,86.4 
		317.2,116 317.2,175.2 326,180 317.2,185.6 317.2,244.8 333.2,252 333.2,324.8 317.2,332 317.2,391.2 369.2,420.8 421.2,391.2 
		421.2,359.2 469.2,328.8 	"/>
</g>
<polyline style="fill:#C1C1C1;" points="369.2,85.6 317.2,116 317.2,175.2 326,180 317.2,185.6 317.2,244.8 333.2,252 333.2,324.8 
	317.2,332 317.2,391.2 369.2,420.8 421.2,391.2 421.2,356.8 "/>
<polygon style="fill:#FFC114;" points="100.4,136 253.2,86.4 406,136 364.4,336 253.2,423.2 142,336 "/>
<polyline style="fill:#EAAC0F;" points="253.2,86.4 406,136 364.4,336 253.2,423.2 "/>
<polygon style="fill:#FFC114;" points="173.2,316.8 253.2,300.8 333.2,316.8 318.8,474.4 253.2,506.4 187.6,474.4 "/>
<polyline style="fill:#EAAC0F;" points="253.2,300.8 333.2,316.8 318.8,474.4 253.2,506.4 "/>
<polygon style="fill:#FFC114;" points="141.2,132 5.2,139.2 71.6,205.6 139.6,170.4 "/>
<polyline style="fill:#EAAC0F;" points="71.6,205.6 139.6,170.4 141.2,132 "/>
<polygon style="fill:#FFC114;" points="365.2,132 501.2,139.2 434.8,205.6 366.8,170.4 "/>
<polyline style="fill:#EAAC0F;" points="365.2,132 501.2,139.2 434.8,205.6 "/>
<path style="fill:#5E6664;" d="M211.6,239.2c0,7.2-6.4,13.6-15.2,13.6c-8,0-15.2-5.6-15.2-13.6c0-7.2,6.4-13.6,15.2-13.6
	C205.2,226.4,211.6,232,211.6,239.2z"/>
<path style="fill:#2F423F;" d="M207.6,230.4c5.6,4.8,5.6,13.6,0,18.4s-15.2,4.8-20.8,0"/>
<ellipse style="fill:#5E6664;" cx="309.2" cy="239.2" rx="15.2" ry="13.6"/>
<path style="fill:#2F423F;" d="M319.6,230.4c5.6,4.8,5.6,13.6,0,18.4c-5.6,4.8-15.2,4.8-20.8,0"/>
<polygon style="fill:#9E7738;" points="272.4,484.8 234,484.8 208.4,444.8 297.2,444.8 "/>
<polygon style="fill:#C1924D;" points="272.4,460.8 234,460.8 208.4,444.8 297.2,444.8 "/>
<polygon style="fill:#EAAC0F;" points="139.6,170.4 264.4,259.2 275.6,152.8 163.6,142.4 136.4,144.8 131.6,150.4 122.8,165.6 "/>
<polygon style="fill:#FFFFFF;" points="400.4,100.8 367.6,44.8 313.2,44.8 298,12.8 207.6,12.8 192.4,44.8 138,44.8 105.2,100.8 
	138,156.8 197.2,156.8 207.6,172.8 298,172.8 308.4,156.8 367.6,156.8 "/>
<polyline style="fill:#E5E5E5;" points="141.2,156.8 197.2,156.8 207.6,172.8 298,172.8 308.4,156.8 367.6,156.8 400.4,100.8 
	367.6,44.8 313.2,44.8 299.6,17.6 "/>
<g>
</g>
<g>
</g>
<g>
</g>
<g>
</g>
<g>
</g>
<g>
</g>
<g>
</g>
<g>
</g>
<g>
</g>
<g>
</g>
<g>
</g>
<g>
</g>
<g>
</g>
<g>
</g>
<g>
</g>
</svg>
