<svg xmlns="http://www.w3.org/2000/svg" viewBox="0 0 512 512"><circle cx="256" cy="256" r="256" fill="#590f38"/><path d="M25.154 280.179l231.808 231.808c135.774-.501 246.617-106.693 254.564-240.589L496.127 256l-38.915 8.848-126.705-126.705L25.154 280.179z" fill="#380423"/><path d="M128.591 221.647S-9 231.692 17.667 272.692 195.371 317.535 256 317.535s211.667-3.842 238.333-44.842c26.667-41-110.924-51.045-110.924-51.045l-254.818-.001z" fill="#ffd863"/><path d="M383.409 221.647H257v95.887c61.263-.042 210.81-4.062 237.333-44.841 26.667-41.001-110.924-51.046-110.924-51.046z" fill="#ffcf35"/><path d="M112.333 250.761s62-140.353 108.333-120.942 33.667 20.205 75.667-1.843 103.333 122.785 103.333 122.785-145.333 33.595-287.333 0z" fill="#ffb344"/><g fill="#ff9451"><path d="M296.333 127.976c-23.725 12.454-30.007 17.618-39.333 16.256v121.42c81.616-.787 142.667-14.891 142.667-14.891s-61.334-144.832-103.334-122.785z"/><path d="M129.381 216.465c-10.47 19.407-17.048 34.296-17.048 34.296 142 33.595 287.333 0 287.333 0s-6.382-15.068-16.436-34.742c-39.798 7.161-146.066 21.984-253.849.446z"/></g><path d="M383.231 216.019c-23.441 4.218-69.945 11.091-126.231 11.63v38.004c81.616-.787 142.667-14.891 142.667-14.891s-6.382-15.069-16.436-34.743z" fill="#f7674f"/></svg>