<?xml version="1.0" encoding="iso-8859-1"?>
<!-- Generator: Adobe Illustrator 19.0.0, SVG Export Plug-In . SVG Version: 6.00 Build 0)  -->
<svg version="1.1" id="Layer_1" xmlns="http://www.w3.org/2000/svg" xmlns:xlink="http://www.w3.org/1999/xlink" x="0px" y="0px"
	 viewBox="0 0 512 512" style="enable-background:new 0 0 512 512;" xml:space="preserve">
<circle style="fill:#590F38;" cx="256" cy="256" r="256"/>
<path style="fill:#380423;" d="M25.154,280.179l231.808,231.808c135.774-0.501,246.617-106.693,254.564-240.589L496.127,256
	l-38.915,8.848L330.507,138.143L25.154,280.179z"/>
<path style="fill:#FFD863;" d="M128.591,221.647c0,0-137.591,10.045-110.924,51.045S195.371,317.535,256,317.535
	s211.667-3.842,238.333-44.842c26.667-41-110.924-51.045-110.924-51.045L128.591,221.647L128.591,221.647z"/>
<path style="fill:#FFCF35;" d="M383.409,221.647H257v95.887c61.263-0.042,210.81-4.062,237.333-44.841
	C521,231.692,383.409,221.647,383.409,221.647z"/>
<path style="fill:#FFB344;" d="M112.333,250.761c0,0,62-140.353,108.333-120.942s33.667,20.205,75.667-1.843
	s103.333,122.785,103.333,122.785S254.333,284.356,112.333,250.761z"/>
<g>
	<path style="fill:#FF9451;" d="M296.333,127.976c-23.725,12.454-30.007,17.618-39.333,16.256v121.42
		c81.616-0.787,142.667-14.891,142.667-14.891S338.333,105.929,296.333,127.976z"/>
	<path style="fill:#FF9451;" d="M129.381,216.465c-10.47,19.407-17.048,34.296-17.048,34.296c142,33.595,287.333,0,287.333,0
		s-6.382-15.068-16.436-34.742C343.432,223.18,237.164,238.003,129.381,216.465z"/>
</g>
<path style="fill:#F7674F;" d="M383.231,216.019c-23.441,4.218-69.945,11.091-126.231,11.63v38.004
	c81.616-0.787,142.667-14.891,142.667-14.891S393.285,235.693,383.231,216.019z"/>
<g>
</g>
<g>
</g>
<g>
</g>
<g>
</g>
<g>
</g>
<g>
</g>
<g>
</g>
<g>
</g>
<g>
</g>
<g>
</g>
<g>
</g>
<g>
</g>
<g>
</g>
<g>
</g>
<g>
</g>
</svg>
