<svg xmlns="http://www.w3.org/2000/svg" viewBox="0 0 473.654 473.654"><circle cx="236.827" cy="236.827" r="236.827" fill="#357180"/><path d="M188.37 134.468s-18.507 84.309 6.17 119.27c0 0 37.014-13.021 61.688 6.167 0 0 74.025-69.915 143.936-22.621 0 0 61.688 131.603-57.574 125.433 0 0-22.621 4.117-37.007 4.117 0 0-65.802 45.238-152.167 4.114 0 0-26.73-12.341-39.067-14.397 0 0-28.791-4.114-34.958-34.958 0 0-6.17-49.351 2.053-69.911 0 0 47.298-98.706 59.635-127.493 0 0 12.337-24.677 16.447-37.011 0 0 10.284-28.787 32.905-28.787 0 0 43.865 0 60.316 6.167 0 0 14.053 8.223 16.282 21.076 0 0 3.601 27.763 2.573 40.099 0 0-2.315 12.595-16.966 5.658 0 0-8.223 12.681-20.048 1.369 0 0-6.507 8.911-19.872-2.401 0 0-13.021 9.596-18.163-2.737l-6.17 1.713v5.134h-.013z" fill="#f1c089"/><g fill="#e1af82"><path d="M232.235 273.613c4.783-3.347 10.445-5.49 16.331-6.597 5.901-1.051 12.176-.984 18.163.606 6.009 1.511 11.679 4.409 16.544 8.208 4.936 3.736 9.057 8.358 12.584 13.272.183.258.337.535.438.815l.075.179c2.39 6.219 4.895 12.621 7.647 18.803 2.752 6.204 5.55 12.389 8.691 18.391 3.074 6.024 6.413 11.926 10.19 17.524 3.792 5.587 8.025 10.901 13.526 15.164-6.552-2.562-12.053-7.389-16.88-12.483-4.82-5.183-8.956-10.923-12.707-16.85-3.695-5.972-7.079-12.116-10.052-18.447-2.951-6.357-5.748-12.692-8.048-19.431l.512.991c-3.104-4.495-6.683-8.594-10.676-12.139-4.054-3.485-8.62-6.32-13.623-8.212-5.026-1.821-10.452-2.793-16.009-2.693a53.758 53.758 0 0 0-16.706 2.899zM174.661 285.95c1.84 9.614 3.242 18.249 6.368 26.046 1.556 3.878 3.5 7.49 6.062 10.849 2.535 3.41 5.77 6.436 9.502 9.715-4.974-.052-9.91-1.937-14.031-5.097-4.121-3.171-7.281-7.621-9.166-12.415-1.915-4.802-2.659-9.91-2.461-14.872.263-4.952 1.272-9.862 3.726-14.226zM204.816 354.493c11.095-.677 21.263-.991 31.364-2.42 5.033-.703 10.022-1.556 15.011-2.767 4.996-1.208 9.947-2.756 15.317-4.409-3.41 4.473-8.033 7.924-13.089 10.426a51.418 51.418 0 0 1-16.133 4.899c-5.579.759-11.249.628-16.75-.254-5.484-.909-10.903-2.502-15.72-5.475zM95.15 313.369c2.39 5.415 3.661 9.457 5.501 12.823a31.212 31.212 0 0 0 3.149 4.88c1.309 1.675 3.003 3.351 5.063 5.602-2.842 1.103-5.901.875-8.758-.295-2.827-1.219-5.303-3.56-6.735-6.357-1.477-2.782-1.963-5.886-1.672-8.773.348-2.884 1.305-5.674 3.452-7.88zM188.37 124.188c-3.508-.191-7.105-1.26-10.284-3.063-3.197-1.784-5.998-4.286-8.339-7.09-2.345-2.82-4.267-5.957-5.8-9.248a48.128 48.128 0 0 1-3.519-10.359l3.833-.224c-.542 4.207-1.309 8.317-2.412 12.393-.576 2.031-1.197 4.057-2.053 6.006-.849 1.926-1.761 3.938-3.302 5.411.965-1.859 1.44-3.848 1.825-5.86.344-2.019.658-4.042.898-6.081.497-4.061.89-8.178 1.174-12.225l.841-11.978 2.988 11.753c.804 3.149 2.053 6.395 3.41 9.45a54.703 54.703 0 0 0 4.959 8.754c1.945 2.719 4.185 5.22 6.806 7.337 2.629 2.152 5.628 3.789 8.975 5.024zM213.051 100.168c-.475 10-.561 20.104-.344 30.186-1.586-9.977-2.872-19.992-3.769-30.133l4.113-.053zM233.951 94.918c.052 12.7-.52 25.268-1.372 37.837-.52-12.561-1.324-25.164-2.73-37.557l4.102-.28zM254.171 90.135c.03 13.795-.277 27.561-1.541 41.248-.101-13.724-1.174-27.415-2.565-41.008l4.106-.24zM194.54 127.617c-.366-5.512-1.081-10.994-2.229-16.342a70.563 70.563 0 0 0-.995-3.968l-.591-1.941c-.299-.759-.037-.202-.344-.344-1.724.127-4.461 1.735-6.458 3.111l-2.075-3.538a32.733 32.733 0 0 1 4.106-1.649c1.455-.4 2.82-.935 4.873-.632.512.105 1.17.37 1.642.942.247.262.475.808.46.856.123.393.093.408.153.632l.4 2.079c.236 1.387.423 2.779.576 4.166.587 5.551.703 11.101.482 16.628zM180.307 88.25c5.856-3.747 11.922-6.354 18.178-8.683 6.253-2.281 12.658-4.065 19.128-5.452 12.943-2.764 26.162-3.867 39.303-3.732-13.133.546-26.207 2.337-38.821 5.729-6.312 1.701-12.498 3.781-18.477 6.324-5.923 2.543-11.847 5.527-16.903 9.147l-2.408-3.333zM327.172 244.482c2.995-5.258 8.661-8.62 14.36-10.538 5.8-1.933 11.963-2.502 17.924-2.053 5.983.423 11.78 1.874 17.258 3.968 5.464 2.102 10.643 4.884 15.228 8.627-5.886-.572-11.432-1.574-16.907-2.431-5.471-.853-10.852-1.541-16.185-1.956-5.333-.389-10.62-.49-15.893.082-5.266.64-10.546 1.676-15.785 4.301zM194.54 253.734c-5.901 1.223-11.6 2.857-16.761 5.426-5.217 2.483-9.742 5.916-14.323 9.611-4.521 3.74-9.371 7.718-15.142 10.695-5.725 3.055-12.27 4.555-18.604 5.067a4.057 4.057 0 0 1-4.375-3.717 4.012 4.012 0 0 1 .856-2.835l.161-.209c3.485-4.42 6.903-10.048 9.7-15.56 2.98-5.535 5.501-11.346 7.939-17.217a300.457 300.457 0 0 0 6.612-17.999c2.105-6.084 3.915-12.281 5.894-18.507-.101 6.537-.86 13.029-1.862 19.506-1.088 6.458-2.543 12.872-4.461 19.18-1.862 6.327-4.286 12.498-7.057 18.548-3.018 6.021-5.991 11.746-10.613 17.423l-3.358-6.761c5.564-.288 10.852-1.593 15.848-3.803 5.033-2.188 9.685-5.587 14.775-8.874 5.018-3.369 10.643-6.428 16.607-8.186a50.166 50.166 0 0 1 18.164-1.788z"/></g></svg>