<?xml version="1.0" encoding="iso-8859-1"?>
<!-- Generator: Adobe Illustrator 19.0.0, SVG Export Plug-In . SVG Version: 6.00 Build 0)  -->
<svg version="1.1" id="Layer_1" xmlns="http://www.w3.org/2000/svg" xmlns:xlink="http://www.w3.org/1999/xlink" x="0px" y="0px"
	 viewBox="0 0 473.654 473.654" style="enable-background:new 0 0 473.654 473.654;" xml:space="preserve">
<circle style="fill:#357180;" cx="236.827" cy="236.827" r="236.827"/>
<path style="fill:#F1C089;" d="M188.37,134.468c0,0-18.507,84.309,6.17,119.27c0,0,37.014-13.021,61.688,6.167
	c0,0,74.025-69.915,143.936-22.621c0,0,61.688,131.603-57.574,125.433c0,0-22.621,4.117-37.007,4.117
	c0,0-65.802,45.238-152.167,4.114c0,0-26.73-12.341-39.067-14.397c0,0-28.791-4.114-34.958-34.958c0,0-6.17-49.351,2.053-69.911
	c0,0,47.298-98.706,59.635-127.493c0,0,12.337-24.677,16.447-37.011c0,0,10.284-28.787,32.905-28.787c0,0,43.865,0,60.316,6.167
	c0,0,14.053,8.223,16.282,21.076c0,0,3.601,27.763,2.573,40.099c0,0-2.315,12.595-16.966,5.658c0,0-8.223,12.681-20.048,1.369
	c0,0-6.507,8.911-19.872-2.401c0,0-13.021,9.596-18.163-2.737l-6.17,1.713v5.134H188.37z"/>
<g>
	<path style="fill:#E1AF82;" d="M232.235,273.613c4.783-3.347,10.445-5.49,16.331-6.597c5.901-1.051,12.176-0.984,18.163,0.606
		c6.009,1.511,11.679,4.409,16.544,8.208c4.936,3.736,9.057,8.358,12.584,13.272c0.183,0.258,0.337,0.535,0.438,0.815l0.075,0.179
		c2.39,6.219,4.895,12.621,7.647,18.803c2.752,6.204,5.55,12.389,8.691,18.391c3.074,6.024,6.413,11.926,10.19,17.524
		c3.792,5.587,8.025,10.901,13.526,15.164c-6.552-2.562-12.053-7.389-16.88-12.483c-4.82-5.183-8.956-10.923-12.707-16.85
		c-3.695-5.972-7.079-12.116-10.052-18.447c-2.951-6.357-5.748-12.692-8.048-19.431l0.512,0.991
		c-3.104-4.495-6.683-8.594-10.676-12.139c-4.054-3.485-8.62-6.32-13.623-8.212c-5.026-1.821-10.452-2.793-16.009-2.693
		C243.383,270.79,237.721,271.729,232.235,273.613z"/>
	<path style="fill:#E1AF82;" d="M174.661,285.95c1.84,9.614,3.242,18.249,6.368,26.046c1.556,3.878,3.5,7.49,6.062,10.849
		c2.535,3.41,5.77,6.436,9.502,9.715c-4.974-0.052-9.91-1.937-14.031-5.097c-4.121-3.171-7.281-7.621-9.166-12.415
		c-1.915-4.802-2.659-9.91-2.461-14.872C171.198,295.224,172.207,290.314,174.661,285.95z"/>
	<path style="fill:#E1AF82;" d="M204.816,354.493c11.095-0.677,21.263-0.991,31.364-2.42c5.033-0.703,10.022-1.556,15.011-2.767
		c4.996-1.208,9.947-2.756,15.317-4.409c-3.41,4.473-8.033,7.924-13.089,10.426c-5.056,2.513-10.553,4.166-16.133,4.899
		c-5.579,0.759-11.249,0.628-16.75-0.254C215.052,359.059,209.633,357.466,204.816,354.493z"/>
	<path style="fill:#E1AF82;" d="M95.15,313.369c2.39,5.415,3.661,9.457,5.501,12.823c0.883,1.687,1.847,3.209,3.149,4.88
		c1.309,1.675,3.003,3.351,5.063,5.602c-2.842,1.103-5.901,0.875-8.758-0.295c-2.827-1.219-5.303-3.56-6.735-6.357
		c-1.477-2.782-1.963-5.886-1.672-8.773C92.046,318.365,93.003,315.575,95.15,313.369z"/>
	<path style="fill:#E1AF82;" d="M188.37,124.188c-3.508-0.191-7.105-1.26-10.284-3.063c-3.197-1.784-5.998-4.286-8.339-7.09
		c-2.345-2.82-4.267-5.957-5.8-9.248c-1.563-3.313-2.711-6.683-3.519-10.359l3.833-0.224c-0.542,4.207-1.309,8.317-2.412,12.393
		c-0.576,2.031-1.197,4.057-2.053,6.006c-0.849,1.926-1.761,3.938-3.302,5.411c0.965-1.859,1.44-3.848,1.825-5.86
		c0.344-2.019,0.658-4.042,0.898-6.081c0.497-4.061,0.89-8.178,1.174-12.225l0.841-11.978l2.988,11.753
		c0.804,3.149,2.053,6.395,3.41,9.45c1.387,3.074,3.044,6.002,4.959,8.754c1.945,2.719,4.185,5.22,6.806,7.337
		C182.024,121.316,185.023,122.953,188.37,124.188z"/>
	<path style="fill:#E1AF82;" d="M213.051,100.168c-0.475,10-0.561,20.104-0.344,30.186c-1.586-9.977-2.872-19.992-3.769-30.133
		L213.051,100.168z"/>
	<path style="fill:#E1AF82;" d="M233.951,94.918c0.052,12.7-0.52,25.268-1.372,37.837c-0.52-12.561-1.324-25.164-2.73-37.557
		L233.951,94.918z"/>
	<path style="fill:#E1AF82;" d="M254.171,90.135c0.03,13.795-0.277,27.561-1.541,41.248c-0.101-13.724-1.174-27.415-2.565-41.008
		L254.171,90.135z"/>
	<path style="fill:#E1AF82;" d="M194.54,127.617c-0.366-5.512-1.081-10.994-2.229-16.342c-0.299-1.335-0.621-2.659-0.995-3.968
		l-0.591-1.941c-0.299-0.759-0.037-0.202-0.344-0.344c-1.724,0.127-4.461,1.735-6.458,3.111l-2.075-3.538
		c1.372-0.658,2.674-1.182,4.106-1.649c1.455-0.4,2.82-0.935,4.873-0.632c0.512,0.105,1.17,0.37,1.642,0.942
		c0.247,0.262,0.475,0.808,0.46,0.856c0.123,0.393,0.093,0.408,0.153,0.632l0.4,2.079c0.236,1.387,0.423,2.779,0.576,4.166
		C194.645,116.54,194.761,122.09,194.54,127.617z"/>
	<path style="fill:#E1AF82;" d="M180.307,88.25c5.856-3.747,11.922-6.354,18.178-8.683c6.253-2.281,12.658-4.065,19.128-5.452
		c12.943-2.764,26.162-3.867,39.303-3.732c-13.133,0.546-26.207,2.337-38.821,5.729c-6.312,1.701-12.498,3.781-18.477,6.324
		c-5.923,2.543-11.847,5.527-16.903,9.147L180.307,88.25z"/>
	<path style="fill:#E1AF82;" d="M327.172,244.482c2.995-5.258,8.661-8.62,14.36-10.538c5.8-1.933,11.963-2.502,17.924-2.053
		c5.983,0.423,11.78,1.874,17.258,3.968c5.464,2.102,10.643,4.884,15.228,8.627c-5.886-0.572-11.432-1.574-16.907-2.431
		c-5.471-0.853-10.852-1.541-16.185-1.956c-5.333-0.389-10.62-0.49-15.893,0.082C337.691,240.821,332.411,241.857,327.172,244.482z"
		/>
	<path style="fill:#E1AF82;" d="M194.54,253.734c-5.901,1.223-11.6,2.857-16.761,5.426c-5.217,2.483-9.742,5.916-14.323,9.611
		c-4.521,3.74-9.371,7.718-15.142,10.695c-5.725,3.055-12.27,4.555-18.604,5.067c-2.236,0.183-4.192-1.481-4.375-3.717
		c-0.086-1.058,0.239-2.061,0.856-2.835l0.161-0.209c3.485-4.42,6.903-10.048,9.7-15.56c2.98-5.535,5.501-11.346,7.939-17.217
		c2.375-5.894,4.596-11.899,6.612-17.999c2.105-6.084,3.915-12.281,5.894-18.507c-0.101,6.537-0.86,13.029-1.862,19.506
		c-1.088,6.458-2.543,12.872-4.461,19.18c-1.862,6.327-4.286,12.498-7.057,18.548c-3.018,6.021-5.991,11.746-10.613,17.423
		l-3.358-6.761c5.564-0.288,10.852-1.593,15.848-3.803c5.033-2.188,9.685-5.587,14.775-8.874c5.018-3.369,10.643-6.428,16.607-8.186
		C182.36,253.786,188.538,253.229,194.54,253.734z"/>
</g>
<g>
</g>
<g>
</g>
<g>
</g>
<g>
</g>
<g>
</g>
<g>
</g>
<g>
</g>
<g>
</g>
<g>
</g>
<g>
</g>
<g>
</g>
<g>
</g>
<g>
</g>
<g>
</g>
<g>
</g>
</svg>
