<svg xmlns="http://www.w3.org/2000/svg" viewBox="0 0 1571.256 1724.137"><g stroke-width=".5"><path fill="#A00" stroke="#A00" d="M664.28 67.279c487.361-42.811 849.632 187.271 553.519 356.87-23.605 13.416-52.678 26.224-59.944 28.389-19.704-24.978-65.803-57.835-99.102-75.193-4.967-2.969-186.193-75.578-186.924-75.871 4.429-2.036 8.368-5.085 11.119-9.135l.832-.058c-.025-.263-18.576-110.668-18.619-110.929-2.221-28.268-104.504-32.205-107.821 2.057-1.339 8.778-14.795 95.361-15.832 100.612-9.795 18.606 39.387 30.584 87.355 27.309 54.717 40.742 137.666 67.901 308.804 149.028-96.634 42.418-349.661 83.092-593.684 34.722C75.077 400.964 155.675 113.025 664.28 67.279z"/><path fill="#333" stroke="#333" d="M776.325 164.229c14.577-5.1 30.315-6.092 45.622-4.969 11.199 1.065 22.596 3.232 32.533 8.733 5.056 2.86 10.193 7.135 10.681 13.359-.985 7.223-7.573 11.593-13.607 14.526-12.432 5.72-26.302 7.464-39.865 7.639-12.556-.058-25.288-1.561-37.086-6.041-6.982-2.758-14.14-6.866-17.262-14.067.066-.679.131-1.364.204-2.043 11.995-.161 23.997.08 35.991-.226-11.987-.102-23.967-.175-35.955-.131a11.579 11.579 0 0 1 3.145-7.427c4.21-4.494 9.879-7.289 15.599-9.353z"/><path stroke="#000" d="M757.581 181.009c11.987-.044 23.967.029 35.955.131-11.995.306-23.997.066-35.991.226l.036-.357zM865.161 181.352c5.056 30.468 10.251 60.922 15.358 91.39.861 6.552 2.641 12.95 3.261 19.539l-.832.058c-47.431-.715-94.87-1.109-142.302-1.868.277-2.152.584-4.297.861-6.45 1.299-6.574 2.116-13.235 3.225-19.845 4.188-26.922 8.5-53.83 12.608-80.767 3.123 7.201 10.28 11.309 17.262 14.067 11.798 4.48 24.529 5.983 37.086 6.041 13.563-.175 27.433-1.919 39.865-7.639 6.035-2.932 12.623-7.303 13.608-14.526z"/><path fill="maroon" stroke="maroon" d="M1323.424 281.921c2.902 16.518-9.996-60.195 191.258 1135.822-.992-.029-1.963-.044-2.911-.029 3.672 31.578-12.126 57.936-33.963 80.701-203.951 204.86-1076.491 221.026-1353.426 27.915-92.638-64.257-64.135-118.512-62.147-132.146C242.777 242.494 231.397 314.784 233.567 302.08c2 7.368 3.471 26.779 22.997 53.801 57.439 78.173 192.101 120.069 287.419 139.201 244.329 48.431 498.008 7.276 593.684-34.722 3.933 1.86 8.048 3.312 12.133 4.837-16.646 61.926-3.446 141.179 25.66 421.221-34.406 23.757-28.518 40.032-29.25 48.803-2.13 49.598-4.188 99.204-6.289 148.802-.445 6.085 0 12.272-1.408 18.255-.956 4.582-.379 9.733 2.663 13.461 11.281 14.418 43.18 11.647 61.359 8.193 34.678-6.756 81.896-28.198 98.533-54.713 2.101-3.072 2.823-6.836 4.969-9.871-.041-1.344-26.995-135.952-33.467-168.421-.912-4.808-1.802-9.944-5.107-13.768-11.247-13.395-36.571-11.786-53.48-7.581.385-27.976-.909-50.689-1.736-56.238-52.868-378.567-46.74-350.819-54.392-360.803 8.885-2.647 147.75-55.681 163.803-145.548 1.737-8.244 1.437-16.7 1.766-25.068z"/><path fill="#333" stroke="#333" d="M742.099 294.156c-2.408-2.853-2.262-6.96-.591-10.134-.277 2.152-.584 4.297-.861 6.45 47.431.759 94.87 1.153 142.302 1.868-2.751 4.049-6.69 7.099-11.119 9.135-13.469 6.209-28.316 8.536-42.966 9.857-22.333 1.525-45.162.533-66.729-5.859-7.224-2.525-15.096-5.101-20.036-11.317z"/><path stroke="#000" d="M828.863 311.331c14.65-1.321 29.498-3.648 42.966-9.857 56.267 22.574 112.461 45.323 168.706 67.933 6.143 2.459 12.505 4.524 18.218 7.938 24.004 12.513 46.461 27.871 67.576 44.776 11.236 9.324 22.45 18.911 31.526 30.417 1.963 2.561 3.794 5.29 4.961 8.317.605 2.335.182 4.815.817 7.165 1.328 5.093 2.072 10.317 2.933 15.511 15.271 109.929 30.329 219.887 45.68 329.809.97 6.508.722 13.118 1.306 19.67.584 12.177.598 24.376.43 36.568 10.12-2.517 20.677-3.67 31.081-2.627 8.201 1.021 16.898 3.655 22.399 10.207 3.305 3.823 4.195 8.96 5.107 13.768a279894.782 279894.782 0 0 0 30.964 155.15c1.335 4.319 2.364 8.719 2.503 13.271-2.145 3.035-2.867 6.8-4.969 9.871-4.239 6.756-9.879 12.564-16.131 17.474-9.923 8.31-21.18 14.855-32.759 20.575-15.84 7.398-32.453 13.315-49.642 16.664-14.016 2.663-28.571 4.093-42.703 1.466-6.88-1.445-14.169-3.925-18.656-9.66-3.042-3.728-3.619-8.879-2.663-13.461 1.408-5.983.963-12.17 1.408-18.255 2.101-49.598 4.159-99.204 6.289-148.802.496-5.946-.773-12.133 1.576-17.817 4.947-13.388 16.241-23.092 27.674-30.986-9.156-88.099-18.393-176.199-27.579-264.298-1.364-15.088-3.757-30.089-4.465-45.235-1.291-20.633-1.219-41.332-.204-61.972 1.065-16.679 2.233-33.511 6.588-49.715-4.086-1.525-8.201-2.977-12.133-4.837-20.239-9.594-40.748-18.605-61.104-27.944-58.514-26.572-117.035-53.151-175.549-79.724-10.017-4.487-20.115-8.828-29.717-14.183-14.709-8.127-28.951-17.138-42.434-27.177z"/></g></svg>